<svg width="74" height="74" viewBox="0 0 74 74" fill="none" xmlns="http://www.w3.org/2000/svg">
<path d="M37 48.2L13.6652 71.6C12.19 73.0667 10.3125 73.8 8.0326 73.8C5.75273 73.8 3.8752 73.0667 2.4 71.6C0.93333 70.1333 0.199997 68.2667 0.199997 66C0.199997 63.7333 0.93333 61.8667 2.4 60.4L25.8 37L2.4 13.8656C0.93333 12.3903 0.199997 10.5127 0.199997 8.2328C0.199997 5.9528 0.93333 4.0752 2.4 2.6C3.86666 1.13333 5.73333 0.399998 8 0.399998C10.2667 0.399998 12.1333 1.13333 13.6 2.6L37 26L60.1344 2.6C61.6097 1.13333 63.4873 0.399998 65.7672 0.399998C68.0472 0.399998 69.9248 1.13333 71.4 2.6C73 4.2 73.8 6.1 73.8 8.3C73.8 10.5 73 12.3333 71.4 13.8L48 37L71.4 60.3348C72.8667 61.81 73.6 63.6875 73.6 65.9674C73.6 68.2473 72.8667 70.1248 71.4 71.6C69.8 73.2 67.9 74 65.7 74C63.5 74 61.6667 73.2 60.2 71.6L37 48.2Z" fill="black"/>
</svg>
